<?xml version="1.0" standalone="no"?>
<!DOCTYPE svg PUBLIC "-//W3C//DTD SVG 20010904//EN"
 "http://www.w3.org/TR/2001/REC-SVG-20010904/DTD/svg10.dtd">
<svg version="1.0" xmlns="http://www.w3.org/2000/svg"
 width="512.000000pt" height="512.000000pt" viewBox="0 0 512.000000 512.000000"
 preserveAspectRatio="xMidYMid meet">
<metadata>
Created by potrace 1.11, written by Peter Selinger 2001-2013
</metadata>
<g transform="translate(0.000000,512.000000) scale(0.100000,-0.100000)"
fill="#000000" stroke="none">
<path d="M860 5104 c-216 -39 -385 -123 -537 -268 -169 -160 -269 -351 -311
-591 -9 -52 -9 -3316 0 -3375 31 -209 139 -420 290 -571 144 -144 310 -232
522 -280 76 -17 183 -18 1721 -18 1762 -1 1703 -3 1870 49 196 62 394 207 516
380 78 110 142 261 175 410 5 19 9 782 11 1695 3 1818 6 1723 -58 1905 -47
136 -132 270 -240 379 -145 145 -314 233 -549 287 -19 5 -777 9 -1685 10
-1355 1 -1663 -1 -1725 -12z m3393 -1080 c101 -27 182 -96 229 -200 l23 -49 2
-1205 2 -1205 -26 -65 c-31 -79 -92 -145 -171 -185 l-57 -30 -1680 -2 c-1787
-3 -1697 -5 -1791 44 -45 24 -104 85 -130 135 -42 79 -42 89 -42 1305 0 991 2
1174 15 1216 36 122 112 200 230 237 53 16 158 17 1702 17 1289 0 1656 -3
1694 -13z"/>
<path d="M1170 3674 c0 -3 54 -60 119 -127 66 -67 145 -149 177 -182 50 -53
380 -395 597 -619 44 -45 171 -177 284 -293 113 -117 209 -213 213 -213 7 0
179 172 355 355 43 44 188 194 324 334 135 139 275 284 311 321 36 37 140 143
231 237 91 94 169 175 173 182 5 8 -343 11 -1388 11 -768 0 -1396 -3 -1396 -6z"/>
<path d="M970 2579 l0 -937 455 455 c250 251 455 458 455 462 0 4 -48 57 -107
118 -113 118 -170 176 -552 572 -130 133 -239 248 -243 255 -4 6 -8 -410 -8
-925z"/>
<path d="M4095 3445 c-22 -24 -107 -113 -190 -198 -82 -84 -265 -273 -407
-418 -141 -145 -259 -267 -263 -271 -6 -6 898 -918 910 -918 3 0 5 416 5 925
0 509 -3 925 -7 925 -5 0 -26 -20 -48 -45z"/>
<path d="M1600 1909 c-254 -254 -459 -464 -456 -466 7 -7 2814 -8 2821 -1 3 3
-846 859 -911 918 -3 2 -103 -95 -222 -218 -216 -221 -217 -222 -260 -222 -60
0 -86 16 -176 111 -136 145 -326 339 -331 339 -2 0 -212 -207 -465 -461z"/>
</g>
</svg>
